<?xml version="1.0" encoding="utf-8"?>
<!-- Generator: Adobe Illustrator 15.0.2, SVG Export Plug-In . SVG Version: 6.00 Build 0)  -->
<!DOCTYPE svg PUBLIC "-//W3C//DTD SVG 1.1//EN" "http://www.w3.org/Graphics/SVG/1.1/DTD/svg11.dtd">
<svg version="1.1" id="Layer_1" xmlns="http://www.w3.org/2000/svg" xmlns:xlink="http://www.w3.org/1999/xlink" x="0px" y="0px"
	 width="206.095px" height="100.639px" viewBox="0 0 206.095 100.639" enable-background="new 0 0 206.095 100.639"
	 xml:space="preserve">
<g>
	<path d="M39.129,0H9.157C6.746,0,4.575,0.901,2.882,2.61C1.196,4.31,0.306,6.484,0.306,8.9c0,2.418,0.886,4.593,2.565,6.292
		c1.686,1.709,3.852,2.61,6.261,2.61c0,0,11.012,0,15.079,0c0,5.085,0,59.949,0,65.035c-4.091,0-15.378,0-15.378,0
		c-2.397,0-4.557,0.883-6.243,2.559C0.897,87.073,0,89.219,0,91.594c0,2.436,0.859,4.564,2.547,6.331
		c1.698,1.772,3.886,2.714,6.326,2.714h48.328c2.414,0,4.586-0.894,6.281-2.592c1.697-1.697,2.592-3.872,2.592-6.286V60.804
		c0-2.416-0.901-4.591-2.605-6.291c-1.702-1.692-3.879-2.587-6.295-2.587c-2.429,0-4.613,0.914-6.317,2.641
		c-1.691,1.716-2.585,3.868-2.585,6.229c0,0,0,17.53,0,22.042c-2.281,0-3.975,0-6.256,0c0-5.38,0-82.837,0-82.837H39.129z"/>
	<path d="M125.084,0H70.634c-2.42,0-4.598,0.901-6.297,2.607c-1.695,1.7-2.594,3.879-2.594,6.302v5.161
		c0,2.427,0.901,4.606,2.601,6.308c1.702,1.702,3.881,2.601,6.302,2.601c3.721,0,6.431-1.876,7.954-5.177c3.179,0,26.81,0,31.416,0
		c0,4.073,0,16.018,0,18.037C108.183,37.412,88.98,53.92,88.98,53.92c-1.448,1.24-3.176,3.549-3.176,7.481v30.342
		c0,2.385,0.932,4.558,2.694,6.284c1.742,1.706,3.939,2.611,6.354,2.611c2.445,0,4.64-0.936,6.344-2.71
		c1.675-1.744,2.562-3.935,2.562-6.335c0,0,0-24.262,0-26.668c1.829-1.573,20.983-18.037,20.983-18.037
		c2.114-1.84,3.228-4.276,3.228-7.057V0H125.084z"/>
	<path d="M189.229,28.996c0,0-12.821,15.355-16.26,19.471c-3.41-4.111-15.892-19.154-15.892-19.154
		c-1.791-2.144-4.242-3.272-7.088-3.272c-2.583,0-4.829,0.986-6.491,2.86c-1.599,1.796-2.411,3.87-2.411,6.163
		c0,2.032,0.745,3.937,2.154,5.503c0,0,15.562,18.569,18.195,21.713c-2.664,3.19-19.908,23.845-19.908,23.845
		c-1.201,1.425-1.813,3.276-1.813,5.491c0,2.44,0.872,4.638,2.518,6.353c1.677,1.748,3.879,2.672,6.366,2.672
		c2.794,0,5.24-1.25,7.066-3.622c0,0,13.736-16.517,17.223-20.71c3.483,4.199,17.252,20.79,17.252,20.79
		c1.915,2.315,4.364,3.542,7.075,3.542c2.324,0,4.477-0.927,6.224-2.685c1.736-1.756,2.656-4.041,2.656-6.609
		c0-2.039-0.674-3.871-1.949-5.296c0,0-17.022-20.518-19.655-23.693c2.618-3.149,18.725-22.52,18.725-22.52
		c0.988-1.084,1.51-2.817,1.51-5.202c0-2.505-1.004-4.685-2.901-6.299c-1.787-1.525-3.833-2.295-6.076-2.295
		C193.186,26.04,190.933,27.062,189.229,28.996z"/>
</g>
</svg>
