<?xml version="1.0" encoding="UTF-8" standalone="no"?>
<!-- Created with Inkscape (http://www.inkscape.org/) -->

<svg
   xmlns:dc="http://purl.org/dc/elements/1.1/"
   xmlns:cc="http://creativecommons.org/ns#"
   xmlns:rdf="http://www.w3.org/1999/02/22-rdf-syntax-ns#"
   xmlns:svg="http://www.w3.org/2000/svg"
   xmlns="http://www.w3.org/2000/svg"
   xmlns:sodipodi="http://sodipodi.sourceforge.net/DTD/sodipodi-0.dtd"
   xmlns:inkscape="http://www.inkscape.org/namespaces/inkscape"
   width="206"
   height="100"
   viewBox="0 0 54.504165 26.458334"
   version="1.1"
   id="svg11684"
   inkscape:version="0.92.4 (5da689c313, 2019-01-14)"
   sodipodi:docname="18x_black.svg">
  <defs
     id="defs11678" />
  <sodipodi:namedview
     id="base"
     pagecolor="#ffffff"
     bordercolor="#666666"
     borderopacity="1.0"
     inkscape:pageopacity="0.0"
     inkscape:pageshadow="2"
     inkscape:zoom="1.979899"
     inkscape:cx="37.911383"
     inkscape:cy="-10.390476"
     inkscape:document-units="px"
     inkscape:current-layer="layer1"
     showgrid="false"
     fit-margin-top="0"
     fit-margin-left="0"
     fit-margin-right="0"
     fit-margin-bottom="0"
     units="px"
     inkscape:window-width="1366"
     inkscape:window-height="744"
     inkscape:window-x="0"
     inkscape:window-y="24"
     inkscape:window-maximized="1" />
  <metadata
     id="metadata11681">
    <rdf:RDF>
      <cc:Work
         rdf:about="">
        <dc:format>image/svg+xml</dc:format>
        <dc:type
           rdf:resource="http://purl.org/dc/dcmitype/StillImage" />
        <dc:title></dc:title>
      </cc:Work>
    </rdf:RDF>
  </metadata>
  <g
     inkscape:label="Layer 1"
     inkscape:groupmode="layer"
     id="layer1"
     transform="translate(-62.693682,-135.05404)">
    <g
       transform="matrix(0.21572381,0,0,0.21582423,40.1752,72.69642)"
       id="g8122">
      <g
         transform="matrix(1.3333333,0,0,-1.3333333,150.06837,292.1863)"
         id="g7251">
        <path
           inkscape:connector-curvature="0"
           id="path7253"
           style="fill:#000000;fill-opacity:1;fill-rule:nonzero;stroke:none"
           d="m 0,0 h -26.244 c -2.111,0 -4.012,-0.789 -5.494,-2.285 -1.477,-1.488 -2.256,-3.393 -2.256,-5.508 0,-2.117 0.775,-4.021 2.246,-5.51 1.477,-1.496 3.373,-2.285 5.482,-2.285 h 13.203 v -56.945 h -13.464 c -2.1,0 -3.991,-0.774 -5.467,-2.24 -1.483,-1.469 -2.268,-3.348 -2.268,-5.428 0,-2.133 0.752,-3.996 2.231,-5.543 1.486,-1.553 3.402,-2.377 5.539,-2.377 h 42.316 c 2.114,0 4.016,0.783 5.5,2.269 1.487,1.487 2.27,3.391 2.27,5.504 v 27.108 c 0,2.115 -0.789,4.019 -2.281,5.508 -1.491,1.482 -3.397,2.265 -5.512,2.265 -2.127,0 -4.039,-0.801 -5.531,-2.312 -1.481,-1.502 -2.264,-3.387 -2.264,-5.453 V -72.533 H 2.527 V 0 Z" />
      </g>
      <g
         transform="matrix(1.3333333,0,0,-1.3333333,337.3522,326.03777)"
         id="g7287">
        <path
           inkscape:connector-curvature="0"
           id="path7289"
           style="fill:#000000;fill-opacity:1;fill-rule:nonzero;stroke:none"
           d="m 0,0 c 0,0 -11.227,-13.445 -14.238,-17.049 -2.987,3.6 -13.914,16.772 -13.914,16.772 -1.569,1.877 -3.715,2.865 -6.207,2.865 -2.262,0 -4.229,-0.863 -5.684,-2.504 -1.4,-1.572 -2.111,-3.389 -2.111,-5.397 0,-1.779 0.652,-3.447 1.886,-4.818 0,0 13.627,-16.26 15.932,-19.012 -2.332,-2.795 -17.432,-20.878 -17.432,-20.878 -1.05,-1.249 -1.587,-2.87 -1.587,-4.809 0,-2.137 0.763,-4.061 2.205,-5.563 1.468,-1.531 3.396,-2.339 5.574,-2.339 2.447,0 4.588,1.095 6.187,3.171 0,0 12.028,14.463 15.08,18.135 3.051,-3.678 15.106,-18.205 15.106,-18.205 1.678,-2.027 3.822,-3.101 6.195,-3.101 2.035,0 3.92,0.812 5.449,2.351 1.522,1.537 2.327,3.537 2.327,5.787 0,1.785 -0.59,3.389 -1.707,4.637 0,0 -14.905,17.965 -17.211,20.746 2.293,2.758 16.396,19.719 16.396,19.719 0.865,0.949 1.322,2.467 1.322,4.554 0,2.194 -0.879,4.102 -2.541,5.516 C 9.463,1.914 7.672,2.588 5.707,2.588 3.465,2.588 1.492,1.693 0,0" />
      </g>
      <path
         d="M 250.16938,388.89688 H 214.5988 V 361.3236 h 35.57058 z m -14.0453,-48.35456 h -7.47865 v -27.57327 h 7.47865 z m -17.92663,-48.35589 c -2.88265,0 -5.43998,1.05733 -7.39331,3.06666 -1.92666,1.97999 -2.94533,4.51065 -2.94533,7.31865 v 38.61191 c -3.35599,0.64266 -6.46532,1.92133 -9.03598,4.45999 -3.43999,3.39332 -5.18799,7.52932 -5.18799,12.28131 v 34.20658 c 0,4.54666 1.70133,8.63999 5.04933,12.16664 3.38799,3.56933 7.58664,5.38266 12.47197,5.38266 h 42.44524 c 4.67732,0 8.78131,-1.716 12.19463,-5.10666 3.42266,-3.39599 5.15866,-7.52664 5.15866,-12.27597 v -34.37325 c 0,-4.87466 -1.752,-9.04399 -5.20532,-12.39064 -2.54933,-2.46266 -5.58532,-3.71333 -8.83865,-4.35066 v -38.61191 c 0,-2.82133 -1.044,-5.35999 -3.01332,-7.34399 -1.97867,-1.99199 -4.512,-3.04132 -7.32799,-3.04132 z"
         style="fill:#000000;fill-opacity:1;fill-rule:nonzero;stroke:none;stroke-width:1.33333015"
         id="path912"
         inkscape:connector-curvature="0" />
    </g>
  </g>
</svg>
