<?xml version="1.0" encoding="utf-8"?>
<!-- Generator: Adobe Illustrator 15.0.2, SVG Export Plug-In . SVG Version: 6.00 Build 0)  -->
<!DOCTYPE svg PUBLIC "-//W3C//DTD SVG 1.1//EN" "http://www.w3.org/Graphics/SVG/1.1/DTD/svg11.dtd">
<svg version="1.1" xmlns="http://www.w3.org/2000/svg" xmlns:xlink="http://www.w3.org/1999/xlink" x="0px" y="0px"
	 width="541.323px" height="254.669px" viewBox="0 0 541.323 254.669" enable-background="new 0 0 541.323 254.669"
	 xml:space="preserve">
<g id="Layer_2">
	<path fill="#BBD9EA" d="M25.896,254.669h425.452c60.685-35.962,96.148-83.558,89.085-129.975
		C528.414,45.728,397.889,0.097,248.899,22.774C99.908,45.451-11.129,127.85,0.891,206.816
		C3.596,224.592,12.323,240.671,25.896,254.669z"/>
</g>
<g id="Layer_1">
	<path d="M58.131,29.439c-2.868,0-5.351,1.053-7.38,3.131c-2.018,2.065-3.041,4.541-3.041,7.358c0,2.412,0.798,4.658,2.37,6.675
		c0,0,26.255,33.334,27.457,34.858c-2.493,0-17.436,0.004-17.436,0.004c-0.464,0-0.681-0.15-0.831-0.295
		c-0.17-0.164-0.282-0.349-0.282-0.717c0-1.454-0.554-2.784-1.602-3.85c-1.056-1.075-2.406-1.641-3.903-1.641
		c-3.669,0-5.774,2.2-5.774,6.034c0,2.935,1.181,5.636,3.508,8.025c2.338,2.405,5.146,3.625,8.343,3.625h20.392
		c2.515,0,4.795-1.049,6.777-3.119c1.963-2.049,2.958-4.465,2.958-7.183c0-2.38-0.813-4.626-2.415-6.674
		c0,0-26.217-33.292-27.452-34.861c2.243,0,17.415,0,17.415,0c0.509,0,0.891,0.077,1.158,1.047c0.518,1.88,1.066,3.125,1.725,3.925
		c0.84,1.016,2.205,1.531,4.058,1.531c1.42,0,2.703-0.551,3.816-1.641c1.109-1.084,1.695-2.479,1.695-4.038
		c0-3.382-1.277-6.298-3.794-8.669c-2.487-2.341-5.202-3.527-8.069-3.527H58.131z"/>
	<path d="M112.872,29.439c-2.006,0-4.068,0.7-6.131,2.084c-2.007,1.348-3.518,2.946-4.492,4.753l-8.792,16.636
		c-1.238,2.309-1.869,5.056-1.869,8.152c0,2.803,0.649,5.57,1.928,8.227l8.717,16.851c0.913,1.714,2.483,3.237,4.679,4.542
		c2.19,1.302,4.376,1.963,6.495,1.963h14.101c1.507,0,2.88-0.556,3.973-1.608c1.113-1.072,1.702-2.449,1.702-3.983
		c0-1.533-0.59-2.91-1.705-3.981c-1.111-1.067-2.449-1.608-3.976-1.608h-13.627c-1.007,0.006-1.594-0.376-2.036-1.319l-7.973-15.403
		c-0.583-1.099-0.885-2.386-0.907-3.847c0-1.332,0.257-2.505,0.766-3.46l8.291-15.619c0.589-1.118,1.067-1.105,1.272-1.101h14.483
		c1.538,0,2.917-0.588,3.99-1.702c1.055-1.097,1.613-2.473,1.613-3.98c0-1.485-0.56-2.841-1.619-3.922
		c-1.069-1.094-2.44-1.671-3.968-1.671H112.872z"/>
	<path d="M149.203,29.439c-1.521,0-2.889,0.564-3.959,1.633c-1.067,1.069-1.632,2.436-1.632,3.956c0,1.494,0.572,2.855,1.654,3.937
		c1.083,1.082,2.445,1.654,3.937,1.654h14.346c0.571,0,1.003,0.175,1.401,0.567c0.388,0.385,0.563,0.806,0.563,1.36
		c0,0,0.055,1.583,0.105,3.095c-0.616-0.088-1.16-0.136-1.618-0.136h-14.801c-3.632,0-6.78,1.301-9.355,3.868
		c-2.577,2.568-3.884,5.706-3.884,9.329v4.393c0,3.65,1.296,6.797,3.851,9.35c2.554,2.553,5.703,3.846,9.358,3.846h13.233
		c0,0,2.998-1.754,4.873-2.853c0.255,0.438,0.49,0.887,0.873,1.257c1.094,1.058,2.442,1.596,4.004,1.596
		c1.486,0,2.843-0.558,3.923-1.613c1.094-1.066,1.671-2.436,1.671-3.961l-0.957-28.239c-0.102-3.621-1.441-6.735-3.979-9.246
		c-2.546-2.518-5.662-3.793-9.259-3.793H149.203z M147.824,64.335l-0.003-0.001c-0.403-0.401-0.583-0.815-0.583-1.341v-4.188
		c0-0.558,0.174-0.976,0.562-1.363c0.393-0.39,0.819-0.565,1.384-0.565h14.818c0.561,0,0.978,0.17,1.356,0.549
		c0.385,0.388,0.574,0.857,0.591,1.473c0,0,0.082,1.168,0.149,2.139c-1.439,0.822-6.129,3.505-6.786,3.882
		c-0.878,0-10.128,0-10.128,0C148.649,64.921,148.23,64.74,147.824,64.335z"/>
	<path d="M188.543,31.088c-1.084,1.08-1.657,2.438-1.657,3.93v57.629h36.017c1.506,0,2.88-0.556,3.973-1.608
		c1.112-1.073,1.701-2.45,1.701-3.983c0-1.531-0.588-2.907-1.699-3.979c-1.093-1.054-2.467-1.611-3.973-1.611c0,0-21.687,0-24.836,0
		c0-3.359,0-46.449,0-46.449c0-1.489-0.574-2.847-1.66-3.928c-1.083-1.08-2.442-1.649-3.931-1.649
		C190.986,29.439,189.626,30.008,188.543,31.088z"/>
	<path d="M236.601,29.439h-1.813v63.208h36.018c1.506,0,2.879-0.556,3.973-1.608c1.112-1.073,1.699-2.45,1.699-3.983
		c0-1.524-0.574-2.896-1.663-3.967c-1.08-1.062-2.435-1.623-3.918-1.623c0,0-21.775,0-24.927,0c0-2.628,0-12.204,0-14.833
		c2.574,0,9.708,0,9.708,0c1.528,0,2.903-0.576,3.973-1.668c1.061-1.082,1.621-2.47,1.621-4.014c0-1.494-0.572-2.855-1.656-3.938
		c-1.083-1.083-2.445-1.656-3.938-1.656c0,0-7.134,0-9.708,0c0-2.619,0-12.023,0-14.642c3.149,0,24.837,0,24.837,0
		c1.513,0,2.892-0.569,3.985-1.645c1.103-1.087,1.686-2.452,1.686-3.948c0-1.52-0.578-2.904-1.673-4.002
		c-1.098-1.102-2.48-1.681-3.999-1.681H236.601z"/>
	<path d="M90.566,119.378H57.794c-2.637,0-5.01,0.985-6.861,2.854c-1.844,1.858-2.817,4.236-2.817,6.878
		c0,2.644,0.969,5.022,2.805,6.88c1.844,1.868,4.212,2.854,6.846,2.854c0,0,12.041,0,16.487,0c0,5.561,0,65.549,0,71.11
		c-4.473,0-16.814,0-16.814,0c-2.622,0-4.982,0.966-6.827,2.798c-1.851,1.834-2.832,4.18-2.832,6.777
		c0,2.664,0.939,4.99,2.785,6.922c1.856,1.939,4.249,2.968,6.917,2.968h52.842c2.639,0,5.015-0.978,6.868-2.834
		c1.856-1.856,2.834-4.234,2.834-6.873v-33.85c0-2.642-0.985-5.02-2.849-6.878c-1.861-1.851-4.241-2.829-6.883-2.829
		c-2.656,0-5.043,1-6.907,2.888c-1.849,1.875-2.827,4.229-2.827,6.81c0,0,0,19.168,0,24.102c-2.495,0-4.346,0-6.841,0
		c0-5.883,0-90.575,0-90.575H90.566z"/>
	<path d="M184.551,119.378h-59.537c-2.646,0-5.027,0.985-6.885,2.851c-1.854,1.858-2.836,4.241-2.836,6.89v5.644
		c0,2.654,0.985,5.037,2.844,6.897c1.861,1.861,4.244,2.844,6.89,2.844c4.068,0,7.032-2.051,8.697-5.661c3.476,0,29.314,0,34.35,0
		c0,4.454,0,17.514,0,19.721c-2.002,1.72-22.999,19.77-22.999,19.77c-1.583,1.356-3.473,3.88-3.473,8.181v33.177
		c0,2.607,1.02,4.983,2.946,6.871c1.905,1.866,4.307,2.856,6.948,2.856c2.673,0,5.073-1.024,6.937-2.963
		c1.832-1.907,2.802-4.302,2.802-6.927c0,0,0-26.528,0-29.16c2-1.72,22.943-19.722,22.943-19.722
		c2.312-2.012,3.529-4.675,3.529-7.717v-43.552H184.551z"/>
	<path d="M254.688,151.083c0,0-14.02,16.79-17.78,21.29c-3.729-4.495-17.375-20.943-17.375-20.943
		c-1.958-2.344-4.639-3.578-7.751-3.578c-2.824,0-5.28,1.078-7.098,3.127c-1.748,1.963-2.636,4.231-2.636,6.739
		c0,2.222,0.814,4.305,2.355,6.017c0,0,17.017,20.304,19.895,23.741c-2.912,3.49-21.768,26.072-21.768,26.072
		c-1.312,1.559-1.982,3.583-1.982,6.005c0,2.668,0.953,5.07,2.753,6.946c1.834,1.912,4.241,2.922,6.961,2.922
		c3.056,0,5.729-1.368,7.727-3.961c0,0,15.02-18.06,18.831-22.646c3.81,4.592,18.863,22.733,18.863,22.733
		c2.095,2.532,4.772,3.873,7.736,3.873c2.541,0,4.895-1.015,6.805-2.937c1.899-1.919,2.904-4.417,2.904-7.227
		c0-2.229-0.736-4.231-2.131-5.79c0,0-18.612-22.434-21.492-25.907c2.863-3.443,20.475-24.624,20.475-24.624
		c1.08-1.185,1.651-3.08,1.651-5.688c0-2.739-1.098-5.122-3.173-6.888c-1.954-1.668-4.19-2.51-6.645-2.51
		C259.014,147.851,256.551,148.968,254.688,151.083z"/>
	<path id="path3822_1_" fill="#FFFFFF" d="M353.868,8.397c-0.203-0.003-0.4,0-0.607,0.01c-7.688,0.35-11.659,6.342-13.046,11.295
		c-1.505,5.378-0.428,8.772-1.637,10.369c-2.994,3.95-11.391,7.277-16.701,8.474c0,0,0.89,6.308,2.245,10.07
		s2.924,6.126,1.936,11.728c-0.988,5.601-8.847,21.112-15.156,34.554c-7.294,15.541-17.843,38.882-17.792,67.255
		c0.02,10.851,1.342,20.783,3.161,29.324c0.217,0.342,0.356,0.638,0.401,0.896c0.67,3.812,12.888,12.986,31.774,14.878
		c16.84,1.687,26.772-1.264,26.677-17.236c-0.177-29.943-24.11-60.35-23.062-79.333c2.264-40.742,32.848-70.245,32.381-89.464
		C364.281,14.552,360.163,8.495,353.868,8.397L353.868,8.397z"/>
	<g id="g3835_1_">
		<path id="path3810_1_" fill="#8CADCB" d="M346.942,1.53c-6.919,0-14.66,2.464-18.779,7.826c-6.014,7.824-6.59,21.148-6.59,21.148
			s-5.767,1.833-4.448,5.457c1.14,3.136,3.824,2.789,4.53,2.636c0.009-0.004,0.022-0.009,0.03-0.011
			c0.096-0.021,0.154-0.041,0.154-0.041c5.311-1.196,13.707-4.523,16.701-8.474c1.209-1.596,0.131-4.99,1.638-10.369
			c1.386-4.953,5.356-10.945,13.045-11.295c6.643-0.302,11.016,5.929,11.182,12.809c0.466,19.22-30.118,48.723-32.382,89.464
			c-1.049,18.983,22.887,49.39,23.063,79.333c0.095,15.972-9.839,18.923-26.678,17.236c-18.886-1.892-31.104-11.066-31.774-14.878
			c-0.045-0.258-0.185-0.554-0.401-0.896c4.047,18.997,10.544,31.105,10.544,31.105s-11.317,3.07-10.986,5.303
			c0.237,1.607,13.606,7.642,15.188,7.423c1.792-0.247,8.623-7.914,12.076-8.906c4.248-1.22,57.732,4.837,61.943,7.66
			c1.23,0.825,0.271,7.742,2.965,9.802c1.4,1.071,23.357-2.283,24.382-3.624c0.807-1.056-8.051-7.578-8.051-7.578
			c3.465-8.09,7.639-15.373,7.393-35.255c-0.383-30.931-12.851-62.145-25.706-82.784c7.492,1.438,21.752-2.387,21.834-4.941
			c0.096-2.963-5.354-3.871-7.66-4.2c-2.307-0.33-20.326-10.381-28.665-18.863c-1.197-4.583-1.782-8.727-1.565-15.979
			c0.248-8.237,4.201-28.665,4.53-42.586C374.735,16.176,366.958,1.859,346.942,1.53z"/>
		<path id="path3832_1_" fill="#8CADCB" d="M310.744,95.257c-5.783,1.546-14.957,4.437-14.991,7.259
			c-0.029,2.479,6.36,2.357,10.78,1.977C307.986,101.167,309.416,98.09,310.744,95.257z"/>
	</g>
	<g id="g3839_1_">
		<path id="path20_1_" fill="none" stroke="#000000" stroke-width="3.3592" stroke-linecap="round" stroke-miterlimit="2.818" d="
			M385.98,114.623c10.353,18.205,22.107,40.762,25.566,72.906c1.887,17.52-1.611,36.669-7.253,45.133
			c6.788,5.88,9.843,7.716,8.662,8.127c-2.083,0.726-22.722,3.803-24.337,2.995c-3.745-1.872-1.45-8.109-3.668-9.916
			c-3.499-2.853-49.02-7.53-57.622-7.655c-8.257-0.122-6.684,2.811-16.119,9.101c-2.098,0.299-15.869-6.292-15.427-7.574
			c0.559-1.618,3.895-2.911,10.994-5.154c-3.567-9.306-12.377-27.56-13.516-56.044c-1.915-47.883,27.207-82.66,28.226-97.23"/>
		<path id="path22_1_" fill="none" stroke="#000000" stroke-width="3.3592" stroke-linecap="round" stroke-miterlimit="2.818" d="
			M321.809,30.501c0.546-13.245,6.262-26.294,17.321-28.125c22.553-3.734,33.281,8.073,35.297,22.744
			c2.156,15.68-8.362,41.855-2.704,61.5"/>
		<path id="path24_1_" fill="none" stroke="#000000" stroke-width="3.3592" stroke-linecap="round" stroke-miterlimit="2.818" d="
			M325.74,50.898c-1.915-3.419-3.131-7.691-3.668-12.351"/>
		<path id="path26_1_" fill="none" stroke="#000000" stroke-width="3.3592" stroke-linecap="round" stroke-miterlimit="2.818" d="
			M311.102,94.901c-8.5,2.947-15.842,5.157-15.842,7.734c0,2.578,9.273,1.841,11.593,1.105"/>
		<path id="path28_1_" fill="none" stroke="#000000" stroke-width="3.3592" stroke-linecap="round" stroke-miterlimit="2.818" d="
			M332.447,27.836c-3.209-0.128-7.451,1.167-10.506,2.646c-1.559,0.754-2.808,1.556-3.455,2.24c-1.916,2.03,0.16,5.368,1.936,5.917
			c0.308,0.095,0.834,0.069,1.505-0.046c3.182-0.546,9.57-3.083,10.948-4.021c1.669-1.136,5.529-2.307,6.003-6.137
			c0.386-10.68,5.409-20.623,14.528-19.887c11.22,0.907,12.257,14.04,10.202,20.623c-4.25,13.626-27.438,42.351-31.612,78.116
			c-2.84,24.298,34.021,69.09,19.767,94.223c-7.73,13.626-53.481,1.128-55.124-9.132"/>
		<path id="path30_1_" fill="none" stroke="#000000" stroke-width="3.3592" stroke-linecap="round" stroke-miterlimit="2.818" d="
			M371.723,86.62c4.261,5.328,25.749,18.664,30.001,19.032c4.25,0.369,9.658,4.787,3.862,6.261
			c-4.812,1.224-12.823,3.463-19.606,2.71l0,0c-7.097-0.993-18.261-6.024-18.261-6.024"/>
	</g>
	
		<ellipse id="path3847_1_" transform="matrix(0.4892 0.8722 -0.8722 0.4892 198.2483 -299.7599)" cx="355.043" cy="19.374" rx="5.983" ry="4.506"/>
</g>
</svg>
