<?xml version="1.0" encoding="utf-8"?>
<!-- Generator: Adobe Illustrator 15.0.2, SVG Export Plug-In . SVG Version: 6.00 Build 0)  -->
<!DOCTYPE svg PUBLIC "-//W3C//DTD SVG 1.1//EN" "http://www.w3.org/Graphics/SVG/1.1/DTD/svg11.dtd">
<svg version="1.1" id="Layer_1" xmlns="http://www.w3.org/2000/svg" xmlns:xlink="http://www.w3.org/1999/xlink" x="0px" y="0px"
	 width="220.635px" height="100.685px" viewBox="0 0 220.635 100.685" enable-background="new 0 0 220.635 100.685"
	 xml:space="preserve">
<g>
	<path fill="#FFFFFF" d="M38.912,0.602H9.106c-2.398,0-4.556,0.896-6.241,2.593C1.189,4.886,0.303,7.049,0.303,9.453
		c0,2.401,0.883,4.563,2.552,6.253c1.678,1.701,3.832,2.599,6.228,2.599c0,0,10.951,0,14.995,0c0,5.059,0,59.615,0,64.672
		c-4.069,0-15.293,0-15.293,0c-2.385,0-4.532,0.881-6.21,2.546C0.891,87.193,0,89.322,0,91.688c0,2.418,0.853,4.538,2.534,6.294
		c1.687,1.766,3.863,2.702,6.29,2.702h48.06c2.4,0,4.561-0.895,6.247-2.579c1.687-1.689,2.578-3.852,2.578-6.251V61.066
		c0-2.403-0.897-4.563-2.592-6.251c-1.692-1.687-3.857-2.577-6.261-2.577c-2.415,0-4.586,0.909-6.282,2.627
		c-1.681,1.706-2.571,3.848-2.571,6.194c0,0,0,17.431,0,21.917c-2.269,0-3.952,0-6.221,0c0-5.348,0-82.375,0-82.375H38.912z"/>
	<path fill="#FFFFFF" d="M203.862,29.437c0,0-12.748,15.269-16.168,19.362c-3.393-4.089-15.803-19.047-15.803-19.047
		c-1.781-2.135-4.219-3.256-7.051-3.256c-2.569,0-4.801,0.984-6.455,2.844c-1.59,1.786-2.397,3.85-2.397,6.131
		c0,2.021,0.741,3.911,2.142,5.468c0,0,15.476,18.472,18.095,21.595c-2.649,3.176-19.796,23.714-19.796,23.714
		c-1.195,1.419-1.803,3.258-1.803,5.461c0,2.427,0.866,4.611,2.503,6.317c1.668,1.738,3.856,2.659,6.329,2.659
		c2.78,0,5.21-1.247,7.03-3.604c0,0,13.659-16.428,17.126-20.597c3.467,4.176,17.154,20.675,17.154,20.675
		c1.906,2.305,4.342,3.525,7.037,3.525c2.313,0,4.452-0.928,6.187-2.674c1.729-1.743,2.644-4.015,2.644-6.57
		c0-2.028-0.67-3.85-1.938-5.267c0,0-16.927-20.403-19.548-23.562c2.604-3.133,18.623-22.395,18.623-22.395
		c0.982-1.081,1.5-2.804,1.5-5.172c0-2.492-0.996-4.659-2.885-6.269c-1.776-1.514-3.809-2.28-6.043-2.28
		C207.799,26.496,205.558,27.513,203.862,29.437z"/>
	<path fill="#FFFFFF" d="M86.42,0c-2.425,0-4.606,0.89-6.311,2.572C78.401,4.264,77.5,6.431,77.5,8.844v82.395
		c0,2.375,0.925,4.533,2.674,6.246c1.727,1.698,3.911,2.598,6.308,2.598h47.893c2.385,0,4.56-0.882,6.291-2.548
		c1.761-1.701,2.69-3.878,2.69-6.306v-30.9c0-2.395-0.899-4.58-2.603-6.317c-1.718-1.75-3.878-2.678-6.251-2.678
		c0,0-34.312,0-39.3,0c0-4.621,0-30.413,0-34.188c1.237-0.429,2.39-1.059,3.355-2.035c1.67-1.694,2.551-3.857,2.551-6.256
		c0-2.342-0.876-4.486-2.532-6.197C96.895,0.92,94.734,0,92.328,0H86.42z M125.502,69.191c0,3.393,0,9.791,0,13.184
		c-4.443,0-25.856,0-30.3,0c0-3.393,0-9.791,0-13.184C99.646,69.191,121.059,69.191,125.502,69.191z"/>
</g>
</svg>
