<?xml version="1.0" encoding="utf-8"?>
<!-- Generator: Adobe Illustrator 15.0.2, SVG Export Plug-In . SVG Version: 6.00 Build 0)  -->
<!DOCTYPE svg PUBLIC "-//W3C//DTD SVG 1.1//EN" "http://www.w3.org/Graphics/SVG/1.1/DTD/svg11.dtd">
<svg version="1.1" xmlns="http://www.w3.org/2000/svg" xmlns:xlink="http://www.w3.org/1999/xlink" x="0px" y="0px"
	 width="415.108px" height="557.309px" viewBox="0 0 415.108 557.309" enable-background="new 0 0 415.108 557.309"
	 xml:space="preserve">
<g id="Layer_1">
	<path fill="#FFFFFF" d="M1043.287-239.039"/>
	<g>
		<g>
			<path d="M-70.764-389.889c-3.999,0-7.46,1.469-10.289,4.365c-2.812,2.879-4.239,6.33-4.239,10.258
				c0,3.363,1.112,6.494,3.304,9.307c0,0,36.604,46.473,38.278,48.598c-3.476,0-24.308,0.006-24.308,0.006
				c-0.646,0-0.949-0.209-1.158-0.412c-0.237-0.229-0.393-0.486-0.393-1c0-2.027-0.772-3.881-2.232-5.367
				c-1.473-1.498-3.354-2.287-5.441-2.287c-5.115,0-8.05,3.066-8.05,8.412c0,4.092,1.646,7.857,4.891,11.188
				c3.26,3.354,7.175,5.055,11.632,5.055h28.429c3.506,0,6.685-1.463,9.448-4.348c2.736-2.857,4.124-6.225,4.124-10.014
				c0-3.318-1.133-6.449-3.366-9.305c0,0-36.55-46.414-38.271-48.602c3.127,0,24.278,0,24.278,0c0.71,0,1.242,0.107,1.614,1.459
				c0.722,2.621,1.486,4.357,2.405,5.473c1.171,1.416,3.074,2.135,5.657,2.135c1.979,0,3.769-0.768,5.32-2.287
				c1.546-1.512,2.362-3.457,2.362-5.629c0-4.715-1.78-8.781-5.289-12.086c-3.467-3.264-7.252-4.918-11.25-4.918H-70.764z"/>
			<path d="M5.552-389.889c-2.796,0-5.672,0.977-8.548,2.906c-2.798,1.879-4.904,4.107-6.262,6.627l-12.257,23.193
				c-1.726,3.219-2.605,7.049-2.605,11.365c0,3.908,0.905,7.766,2.688,11.469l12.153,23.492c1.272,2.391,3.462,4.514,6.522,6.332
				c3.054,1.814,6.102,2.736,9.056,2.736h19.658c2.101,0,4.015-0.775,5.539-2.242c1.552-1.494,2.373-3.414,2.373-5.553
				c0-2.137-0.822-4.057-2.377-5.551c-1.549-1.488-3.414-2.242-5.543-2.242H6.953c-1.404,0.008-2.223-0.525-2.838-1.84L-7-340.67
				c-0.812-1.531-1.233-3.326-1.264-5.363c-0.001-1.857,0.358-3.492,1.067-4.824l11.558-21.775c0.822-1.559,1.488-1.541,1.773-1.535
				h20.191c2.144,0,4.066-0.82,5.562-2.373c1.471-1.529,2.249-3.447,2.249-5.549c0-2.07-0.78-3.961-2.257-5.469
				c-1.49-1.525-3.402-2.33-5.532-2.33H5.552z"/>
			<path d="M56.204-389.889c-2.12,0-4.028,0.787-5.52,2.277c-1.488,1.49-2.275,3.396-2.275,5.516c0,2.082,0.798,3.98,2.307,5.488
				c1.51,1.508,3.408,2.307,5.488,2.307h20c0.797,0,1.398,0.244,1.953,0.791c0.542,0.537,0.785,1.123,0.785,1.896
				c0,0,0.076,2.207,0.147,4.314c-0.859-0.123-1.617-0.189-2.257-0.189H56.199c-5.063,0-9.452,1.814-13.042,5.393
				c-3.593,3.58-5.415,7.955-5.415,13.006v6.125c0,5.088,1.807,9.477,5.369,13.035c3.561,3.559,7.95,5.361,13.047,5.361h18.449
				c0,0,4.18-2.445,6.792-3.977c0.355,0.611,0.684,1.236,1.217,1.752c1.525,1.475,3.404,2.225,5.583,2.225
				c2.071,0,3.962-0.777,5.468-2.248c1.525-1.486,2.331-3.396,2.331-5.523l-1.335-39.369c-0.143-5.049-2.01-9.391-5.547-12.891
				c-3.549-3.51-7.892-5.289-12.908-5.289H56.204z M54.281-341.238l-0.004-0.002c-0.562-0.559-0.812-1.137-0.812-1.869v-5.838
				c0-0.777,0.242-1.361,0.784-1.9c0.547-0.543,1.142-0.787,1.93-0.787h20.658c0.781,0,1.363,0.236,1.891,0.766
				c0.538,0.541,0.801,1.195,0.824,2.053c0,0,0.113,1.629,0.208,2.982c-2.006,1.146-8.545,4.887-9.461,5.412
				c-1.226,0-14.12,0-14.12,0C55.432-340.422,54.847-340.674,54.281-341.238z"/>
			<path d="M111.05-387.59c-1.513,1.506-2.312,3.398-2.312,5.479v80.344h50.214c2.1,0,4.015-0.775,5.538-2.242
				c1.551-1.496,2.371-3.416,2.371-5.553c0-2.135-0.82-4.053-2.369-5.547c-1.522-1.469-3.438-2.246-5.538-2.246
				c0,0-30.235,0-34.626,0c0-4.684,0-64.758,0-64.758c0-2.076-0.8-3.969-2.313-5.477c-1.51-1.506-3.405-2.299-5.481-2.299
				C114.457-389.889,112.56-389.096,111.05-387.59z"/>
			<path d="M178.05-389.889h-2.528v88.121h50.214c2.1,0,4.014-0.775,5.539-2.242c1.551-1.496,2.369-3.416,2.369-5.553
				c0-2.125-0.801-4.037-2.318-5.531c-1.506-1.48-3.395-2.262-5.463-2.262c0,0-30.358,0-34.751,0c0-3.664,0-17.014,0-20.68
				c3.589,0,13.534,0,13.534,0c2.131,0,4.047-0.803,5.538-2.326c1.479-1.508,2.261-3.443,2.261-5.596c0-2.082-0.799-3.98-2.31-5.49
				c-1.51-1.51-3.409-2.309-5.489-2.309c0,0-9.945,0-13.534,0c0-3.65,0-16.762,0-20.412c4.391,0,34.626,0,34.626,0
				c2.109,0,4.031-0.793,5.557-2.293c1.537-1.516,2.35-3.418,2.35-5.504c0-2.119-0.807-4.049-2.332-5.58
				c-1.531-1.535-3.459-2.344-5.576-2.344H178.05z"/>
		</g>
		<g>
			<path d="M322.748-389.889h-26.244c-2.111,0-4.012,0.789-5.494,2.285c-1.477,1.488-2.256,3.393-2.256,5.508
				c0,2.117,0.775,4.021,2.246,5.51c1.477,1.496,3.373,2.285,5.482,2.285c0,0,9.643,0,13.203,0c0,4.453,0,52.492,0,56.945
				c-3.582,0-13.465,0-13.465,0c-2.1,0-3.99,0.773-5.467,2.24c-1.482,1.469-2.268,3.348-2.268,5.428c0,2.133,0.752,3.996,2.23,5.543
				c1.486,1.553,3.402,2.377,5.539,2.377h42.316c2.113,0,4.016-0.783,5.5-2.27c1.486-1.486,2.27-3.391,2.27-5.504v-27.107
				c0-2.115-0.789-4.02-2.281-5.508c-1.49-1.482-3.396-2.266-5.512-2.266c-2.127,0-4.039,0.801-5.531,2.312
				c-1.48,1.502-2.264,3.387-2.264,5.453c0,0,0,15.35,0,19.301c-1.998,0-3.48,0-5.479,0c0-4.711,0-72.533,0-72.533H322.748z"/>
			<path d="M398.012-389.889h-47.678c-2.119,0-4.025,0.789-5.514,2.283c-1.484,1.488-2.271,3.396-2.271,5.518v4.52
				c0,2.125,0.789,4.033,2.277,5.523c1.49,1.49,3.398,2.277,5.518,2.277c3.258,0,5.631-1.643,6.965-4.533c2.783,0,23.475,0,27.508,0
				c0,3.566,0,14.025,0,15.793c-1.604,1.377-18.418,15.832-18.418,15.832c-1.268,1.086-2.781,3.107-2.781,6.551v26.568
				c0,2.088,0.816,3.99,2.359,5.502c1.525,1.494,3.449,2.287,5.564,2.287c2.141,0,4.062-0.82,5.555-2.373
				c1.467-1.527,2.244-3.445,2.244-5.547c0,0,0-21.244,0-23.352c1.602-1.377,18.373-15.793,18.373-15.793
				c1.852-1.611,2.826-3.744,2.826-6.18v-34.877H398.012z"/>
			<path d="M454.178-364.5c0,0-11.227,13.445-14.238,17.049c-2.986-3.6-13.914-16.771-13.914-16.771
				c-1.568-1.877-3.715-2.865-6.207-2.865c-2.262,0-4.229,0.863-5.684,2.504c-1.4,1.572-2.111,3.389-2.111,5.396
				c0,1.779,0.652,3.447,1.887,4.818c0,0,13.627,16.26,15.932,19.012c-2.332,2.795-17.432,20.879-17.432,20.879
				c-1.051,1.248-1.588,2.869-1.588,4.809c0,2.137,0.764,4.061,2.205,5.562c1.469,1.531,3.396,2.34,5.574,2.34
				c2.447,0,4.588-1.096,6.188-3.172c0,0,12.027-14.463,15.08-18.135c3.051,3.678,15.105,18.205,15.105,18.205
				c1.678,2.027,3.822,3.102,6.195,3.102c2.035,0,3.92-0.812,5.449-2.352c1.521-1.537,2.326-3.537,2.326-5.787
				c0-1.785-0.59-3.389-1.707-4.637c0,0-14.904-17.965-17.211-20.746c2.293-2.758,16.396-19.719,16.396-19.719
				c0.865-0.949,1.322-2.467,1.322-4.555c0-2.193-0.879-4.102-2.541-5.516c-1.564-1.336-3.355-2.01-5.32-2.01
				C457.643-367.088,455.67-366.193,454.178-364.5z"/>
		</g>
	</g>
	<g>
		<path d="M14.528,0c-3.999,0-7.46,1.469-10.289,4.365C1.427,7.244,0,10.695,0,14.623c0,3.363,1.112,6.494,3.304,9.307
			c0,0,36.604,46.473,38.278,48.598c-3.476,0-24.308,0.006-24.308,0.006c-0.646,0-0.949-0.209-1.158-0.412
			c-0.237-0.229-0.393-0.486-0.393-1c0-2.027-0.772-3.881-2.232-5.367c-1.473-1.498-3.354-2.287-5.441-2.287
			c-5.115,0-8.05,3.066-8.05,8.412c0,4.092,1.646,7.857,4.891,11.188c3.26,3.354,7.175,5.055,11.632,5.055h28.429
			c3.506,0,6.685-1.463,9.448-4.348c2.736-2.857,4.124-6.225,4.124-10.014c0-3.318-1.133-6.449-3.366-9.305
			c0,0-36.55-46.414-38.271-48.602c3.127,0,24.278,0,24.278,0c0.71,0,1.242,0.107,1.614,1.459c0.722,2.621,1.486,4.357,2.405,5.473
			c1.171,1.416,3.074,2.135,5.657,2.135c1.979,0,3.769-0.768,5.32-2.287c1.546-1.512,2.362-3.457,2.362-5.629
			c0-4.715-1.78-8.781-5.289-12.086C49.768,1.654,45.982,0,41.984,0H14.528z"/>
		<path d="M90.844,0c-2.796,0-5.672,0.977-8.548,2.906c-2.798,1.879-4.904,4.107-6.262,6.627L63.778,32.727
			c-1.726,3.219-2.605,7.049-2.605,11.365c0,3.908,0.905,7.766,2.688,11.469l12.153,23.492c1.272,2.391,3.462,4.514,6.522,6.332
			c3.054,1.814,6.102,2.736,9.056,2.736h19.658c2.101,0,4.015-0.775,5.539-2.242c1.552-1.494,2.373-3.414,2.373-5.553
			c0-2.137-0.822-4.057-2.377-5.551c-1.549-1.488-3.414-2.242-5.543-2.242H92.245c-1.404,0.008-2.223-0.525-2.838-1.84
			L78.292,49.219c-0.812-1.531-1.233-3.326-1.264-5.363c-0.001-1.857,0.358-3.492,1.067-4.824l11.558-21.775
			c0.822-1.559,1.488-1.541,1.773-1.535h20.191c2.144,0,4.066-0.82,5.562-2.373c1.471-1.529,2.249-3.447,2.249-5.549
			c0-2.07-0.78-3.961-2.257-5.469C115.682,0.805,113.77,0,111.64,0H90.844z"/>
		<path d="M141.496,0c-2.12,0-4.028,0.787-5.52,2.277c-1.488,1.49-2.275,3.396-2.275,5.516c0,2.082,0.798,3.98,2.307,5.488
			c1.51,1.508,3.408,2.307,5.488,2.307h20c0.797,0,1.398,0.244,1.953,0.791c0.541,0.537,0.785,1.123,0.785,1.896
			c0,0,0.076,2.207,0.146,4.314c-0.859-0.123-1.617-0.189-2.256-0.189h-20.634c-5.063,0-9.452,1.814-13.042,5.393
			c-3.593,3.58-5.415,7.955-5.415,13.006v6.125c0,5.088,1.807,9.477,5.369,13.035c3.561,3.559,7.95,5.361,13.047,5.361h18.449
			c0,0,4.18-2.445,6.793-3.977c0.355,0.611,0.684,1.236,1.217,1.752c1.525,1.475,3.404,2.225,5.582,2.225
			c2.072,0,3.963-0.777,5.469-2.248c1.525-1.486,2.33-3.396,2.33-5.523l-1.334-39.369c-0.143-5.049-2.01-9.391-5.547-12.891
			C170.859,1.779,166.516,0,161.5,0H141.496z M139.573,48.65l-0.004-0.002c-0.562-0.559-0.812-1.137-0.812-1.869v-5.838
			c0-0.777,0.242-1.361,0.784-1.9c0.547-0.543,1.142-0.787,1.93-0.787h20.659c0.781,0,1.363,0.236,1.891,0.766
			c0.537,0.541,0.801,1.195,0.824,2.053c0,0,0.113,1.629,0.207,2.982c-2.006,1.146-8.545,4.887-9.461,5.412
			c-1.225,0-14.12,0-14.12,0C140.724,49.467,140.139,49.215,139.573,48.65z"/>
		<path d="M196.342,2.299c-1.512,1.506-2.311,3.398-2.311,5.479v80.344h50.213c2.1,0,4.016-0.775,5.539-2.242
			c1.551-1.496,2.371-3.416,2.371-5.553c0-2.135-0.82-4.053-2.369-5.547c-1.523-1.469-3.439-2.246-5.539-2.246
			c0,0-30.234,0-34.625,0c0-4.684,0-64.758,0-64.758c0-2.076-0.801-3.969-2.314-5.477C205.797,0.793,203.902,0,201.826,0
			C199.748,0,197.852,0.793,196.342,2.299z"/>
		<path d="M263.342,0h-2.528v88.121h50.214c2.1,0,4.014-0.775,5.539-2.242c1.551-1.496,2.369-3.416,2.369-5.553
			c0-2.125-0.801-4.037-2.318-5.531c-1.506-1.48-3.395-2.262-5.463-2.262c0,0-30.358,0-34.751,0c0-3.664,0-17.014,0-20.68
			c3.589,0,13.534,0,13.534,0c2.131,0,4.047-0.803,5.538-2.326c1.479-1.508,2.261-3.443,2.261-5.596c0-2.082-0.799-3.98-2.31-5.49
			c-1.51-1.51-3.409-2.309-5.489-2.309c0,0-9.945,0-13.534,0c0-3.65,0-16.762,0-20.412c4.391,0,34.626,0,34.626,0
			c2.109,0,4.031-0.793,5.557-2.293c1.537-1.516,2.35-3.418,2.35-5.504c0-2.119-0.807-4.049-2.332-5.58
			C315.072,0.809,313.145,0,311.027,0H263.342z"/>
		<g>
			<path d="M42.855,114.853H10.083c-2.637,0-5.01,0.985-6.861,2.854c-1.844,1.858-2.817,4.236-2.817,6.878
				c0,2.644,0.969,5.022,2.805,6.88c1.844,1.868,4.212,2.854,6.846,2.854c0,0,12.041,0,16.487,0c0,5.561,0,65.549,0,71.11
				c-4.473,0-16.814,0-16.814,0c-2.622,0-4.982,0.966-6.827,2.798c-1.851,1.834-2.832,4.18-2.832,6.777
				c0,2.664,0.939,4.99,2.785,6.922c1.856,1.939,4.249,2.968,6.917,2.968h52.842c2.639,0,5.015-0.978,6.868-2.834
				c1.856-1.856,2.834-4.234,2.834-6.873v-33.85c0-2.642-0.985-5.02-2.849-6.878c-1.861-1.851-4.241-2.829-6.883-2.829
				c-2.656,0-5.043,1-6.907,2.888c-1.849,1.875-2.827,4.229-2.827,6.81c0,0,0,19.168,0,24.102c-2.495,0-4.346,0-6.841,0
				c0-5.883,0-90.575,0-90.575H42.855z"/>
			<path d="M136.84,114.853H77.303c-2.646,0-5.027,0.985-6.885,2.851c-1.854,1.858-2.836,4.241-2.836,6.89v5.644
				c0,2.654,0.985,5.037,2.844,6.897c1.861,1.861,4.244,2.844,6.89,2.844c4.068,0,7.032-2.051,8.697-5.661c3.476,0,29.314,0,34.35,0
				c0,4.454,0,17.514,0,19.721c-2.002,1.72-22.999,19.77-22.999,19.77c-1.583,1.356-3.473,3.88-3.473,8.181v33.177
				c0,2.607,1.02,4.983,2.946,6.871c1.905,1.866,4.307,2.856,6.948,2.856c2.673,0,5.073-1.024,6.937-2.963
				c1.832-1.907,2.802-4.302,2.802-6.927c0,0,0-26.528,0-29.16c2-1.72,22.943-19.722,22.943-19.722
				c2.312-2.012,3.529-4.675,3.529-7.717v-43.552H136.84z"/>
			<path d="M206.978,146.557c0,0-14.02,16.79-17.78,21.29c-3.729-4.495-17.375-20.943-17.375-20.943
				c-1.958-2.344-4.639-3.578-7.751-3.578c-2.824,0-5.28,1.078-7.098,3.127c-1.748,1.963-2.636,4.231-2.636,6.739
				c0,2.222,0.814,4.305,2.355,6.017c0,0,17.017,20.304,19.895,23.741c-2.912,3.49-21.768,26.072-21.768,26.072
				c-1.312,1.559-1.982,3.583-1.982,6.005c0,2.668,0.953,5.07,2.753,6.946c1.834,1.912,4.241,2.922,6.961,2.922
				c3.056,0,5.729-1.368,7.727-3.961c0,0,15.02-18.06,18.831-22.646c3.81,4.592,18.863,22.733,18.863,22.733
				c2.095,2.532,4.772,3.873,7.736,3.873c2.541,0,4.895-1.015,6.805-2.937c1.899-1.919,2.904-4.417,2.904-7.227
				c0-2.229-0.736-4.231-2.131-5.79c0,0-18.612-22.434-21.492-25.907c2.863-3.443,20.475-24.624,20.475-24.624
				c1.08-1.185,1.651-3.08,1.651-5.688c0-2.739-1.098-5.122-3.173-6.888c-1.954-1.668-4.19-2.51-6.645-2.51
				C211.304,143.325,208.841,144.442,206.978,146.557z"/>
		</g>
		<g id="g4485_1_">
			<path id="path3822_1_" fill="#FFFFFF" d="M305.247,130.219c-0.365-0.006-0.72,0.001-1.093,0.019
				c-13.844,0.629-20.993,11.42-23.49,20.337c-2.71,9.684-0.77,15.795-2.947,18.669c-5.391,7.112-20.508,13.104-30.07,15.257
				c0,0,1.602,11.357,4.042,18.131c2.44,6.773,5.265,11.03,3.485,21.116c-1.779,10.085-15.929,38.014-27.289,62.217
				c-13.134,27.981-32.127,70.008-32.036,121.096c0.035,19.537,2.416,37.421,5.692,52.8c0.39,0.616,0.642,1.149,0.723,1.613
				c1.205,6.863,23.205,23.382,57.211,26.788c30.32,3.038,48.205-2.275,48.033-31.033c-0.318-53.914-43.413-108.663-41.526-142.843
				c4.076-73.357,59.145-126.479,58.305-161.085C323.996,141.3,316.582,130.395,305.247,130.219L305.247,130.219z"/>
			<g id="g3835_1_">
				<path id="path3810_1_" fill="#8CADCB" d="M292.778,117.854c-12.458,0-26.397,4.437-33.814,14.09
					c-10.827,14.088-11.865,38.078-11.865,38.078s-10.382,3.301-8.009,9.826c2.053,5.646,6.886,5.021,8.157,4.746
					c0.016-0.006,0.04-0.016,0.055-0.019c0.172-0.039,0.278-0.074,0.278-0.074c9.562-2.154,24.68-8.145,30.07-15.257
					c2.178-2.874,0.236-8.985,2.948-18.669c2.496-8.917,9.646-19.708,23.488-20.337c11.96-0.543,19.834,10.675,20.134,23.063
					c0.839,34.606-54.229,87.728-58.306,161.085c-1.888,34.18,41.209,88.929,41.527,142.843
					c0.171,28.758-17.715,34.071-48.034,31.033c-34.006-3.406-56.006-19.925-57.211-26.788c-0.081-0.464-0.333-0.997-0.724-1.613
					c7.287,34.204,18.984,56.006,18.984,56.006s-20.377,5.528-19.781,9.548c0.428,2.894,24.499,13.759,27.346,13.366
					c3.228-0.445,15.526-14.25,21.745-16.035c7.648-2.197,103.948,8.71,111.531,13.792c2.216,1.486,0.487,13.939,5.339,17.649
					c2.521,1.929,42.055-4.11,43.9-6.525c1.452-1.9-14.497-13.645-14.497-13.645c6.239-14.566,13.754-27.68,13.311-63.479
					c-0.688-55.692-23.137-111.896-46.283-149.056c13.488,2.589,39.165-4.298,39.312-8.896c0.173-5.336-9.641-6.97-13.793-7.562
					c-4.152-0.594-36.598-18.691-51.612-33.964c-2.156-8.252-3.21-15.713-2.818-28.772c0.445-14.832,7.564-51.612,8.157-76.678
					C342.82,144.226,328.818,118.447,292.778,117.854z"/>
				<path id="path3832_1_" fill="#8CADCB" d="M227.602,286.613c-10.414,2.783-26.932,7.988-26.992,13.07
					c-0.054,4.463,11.451,4.245,19.41,3.56C222.636,297.254,225.21,291.715,227.602,286.613z"/>
			</g>
			<g id="g3839_1_">
				<path id="path20_1_" fill="none" stroke="#000000" stroke-width="6.0483" stroke-linecap="round" stroke-miterlimit="2.818" d="
					M363.068,321.482c18.639,32.778,39.805,73.394,46.033,131.27c3.396,31.546-2.901,66.025-13.061,81.265
					c12.223,10.587,17.723,13.894,15.597,14.633c-3.751,1.307-40.911,6.848-43.818,5.394c-6.744-3.371-2.612-14.601-6.604-17.854
					c-6.301-5.138-88.262-13.559-103.752-13.783c-14.866-0.219-12.033,5.062-29.023,16.386
					c-3.776,0.539-28.572-11.328-27.775-13.637c1.006-2.913,7.011-5.241,19.794-9.28c-6.423-16.756-22.285-49.622-24.335-100.909
					c-3.447-86.217,48.988-148.833,50.821-175.067"/>
				<path id="path22_1_" fill="none" stroke="#000000" stroke-width="6.0483" stroke-linecap="round" stroke-miterlimit="2.818" d="
					M247.525,170.018c0.981-23.848,11.274-47.343,31.188-50.64c40.606-6.724,59.925,14.535,63.554,40.951
					c3.883,28.232-15.058,75.362-4.869,110.733"/>
				<path id="path24_1_" fill="none" stroke="#000000" stroke-width="6.0483" stroke-linecap="round" stroke-miterlimit="2.818" d="
					M254.603,206.744c-3.448-6.156-5.638-13.849-6.604-22.238"/>
				<path id="path26_1_" fill="none" stroke="#000000" stroke-width="6.0483" stroke-linecap="round" stroke-miterlimit="2.818" d="
					M228.247,285.973c-15.306,5.306-28.524,9.285-28.524,13.926c0,4.642,16.697,3.314,20.873,1.989"/>
				<path id="path28_1_" fill="none" stroke="#000000" stroke-width="6.0483" stroke-linecap="round" stroke-miterlimit="2.818" d="
					M266.678,165.219c-5.777-0.231-13.415,2.101-18.916,4.763c-2.806,1.357-5.055,2.801-6.22,4.034
					c-3.451,3.654,0.288,9.665,3.484,10.652c0.554,0.171,1.502,0.124,2.71-0.083c5.729-0.983,17.231-5.55,19.713-7.24
					c3.004-2.045,9.956-4.153,10.809-11.049c0.694-19.23,9.738-37.132,26.159-35.807c20.2,1.632,22.068,25.279,18.369,37.132
					c-7.653,24.534-49.402,76.254-56.921,140.651c-5.112,43.75,61.258,124.399,35.591,169.652
					c-13.918,24.534-96.296,2.03-99.253-16.442"/>
				<path id="path30_1_" fill="none" stroke="#000000" stroke-width="6.0483" stroke-linecap="round" stroke-miterlimit="2.818" d="
					M337.397,271.062c7.671,9.594,46.362,33.605,54.019,34.268c7.652,0.664,17.39,8.619,6.954,11.272
					c-8.663,2.204-23.09,6.235-35.302,4.88l0,0c-12.779-1.788-32.881-10.848-32.881-10.848"/>
			</g>
			<path id="path3847_1_" d="M312.635,159.377c-3.908,2.192-9.439-0.238-12.348-5.428c-2.911-5.187-2.098-11.169,1.809-13.361
				c3.909-2.195,9.438,0.234,12.348,5.424C317.354,151.201,316.543,157.183,312.635,159.377z"/>
		</g>
		<g>
			<path d="M15.271,255.542H10.59v14.065H7.421v-14.065H2.837v-2.88h12.433V255.542z"/>
			<path d="M20.014,252.662v6.168c0.912-0.912,2.161-1.584,3.816-1.584c1.488,0,2.64,0.576,3.289,1.296
				c0.984,1.056,1.008,2.28,1.008,3.648v7.417h-2.832v-6.601c-0.048-1.08-0.048-1.344-0.192-1.704
				c-0.096-0.24-0.504-1.32-2.088-1.32c-1.848,0-2.712,1.488-2.904,2.185c-0.096,0.384-0.096,0.576-0.096,1.92v5.521h-2.88v-16.945
				H20.014z"/>
			<path d="M42.383,266.919c-1.488,1.992-3.409,3.048-5.857,3.048c-3.144,0-6.168-1.992-6.168-6.408
				c0-4.033,2.592-6.312,5.977-6.312c3.168,0,4.488,1.896,4.729,2.256c0.984,1.392,1.2,3.48,1.224,4.681h-8.881
				c0.336,1.896,1.512,2.976,3.408,2.976c1.968,0,2.76-1.152,3.121-1.656L42.383,266.919z M39.118,262.07
				c-0.264-1.872-1.416-2.52-2.688-2.52c-1.536,0-2.592,0.888-2.928,2.52H39.118z"/>
			<path d="M5.501,291.566c0.408,0.624,1.68,2.568,5.256,2.568c0.6,0,1.224-0.048,1.824-0.288c1.224-0.504,1.44-1.368,1.44-1.944
				c0-1.08-0.744-1.464-1.272-1.68c-0.384-0.144-0.432-0.168-1.968-0.528l-2.04-0.432c-1.08-0.264-1.608-0.384-2.136-0.6
				c-0.768-0.312-2.856-1.344-2.856-4.152c0-3.216,2.712-5.28,6.696-5.28c3.648,0,5.617,1.8,6.816,3.432l-2.592,1.944
				c-0.576-0.84-1.68-2.521-4.393-2.521c-1.704,0-3.192,0.768-3.192,2.064c0,1.44,1.584,1.728,3.121,2.016l1.752,0.384
				c2.28,0.48,5.497,1.416,5.497,5.04c0,3.889-3.601,5.449-7.201,5.449c-0.936,0-1.992-0.096-3.024-0.384
				c-1.128-0.336-3.12-1.152-4.392-3.216L5.501,291.566z"/>
			<path d="M31.228,293.919c-1.488,1.992-3.409,3.048-5.857,3.048c-3.144,0-6.168-1.992-6.168-6.408
				c0-4.033,2.592-6.312,5.977-6.312c3.168,0,4.488,1.896,4.729,2.256c0.984,1.392,1.2,3.48,1.224,4.681h-8.881
				c0.336,1.896,1.512,2.976,3.408,2.976c1.968,0,2.76-1.152,3.121-1.656L31.228,293.919z M27.963,289.07
				c-0.264-1.872-1.416-2.52-2.688-2.52c-1.536,0-2.592,0.888-2.928,2.52H27.963z"/>
			<path d="M42.689,284.606l-3.936,12.001h-3.097l-3.888-12.001h2.976l2.497,8.257l2.448-8.257H42.689z"/>
			<path d="M55.316,293.919c-1.488,1.992-3.409,3.048-5.857,3.048c-3.144,0-6.168-1.992-6.168-6.408
				c0-4.033,2.592-6.312,5.977-6.312c3.168,0,4.488,1.896,4.729,2.256c0.984,1.392,1.2,3.48,1.224,4.681h-8.881
				c0.336,1.896,1.512,2.976,3.408,2.976c1.968,0,2.76-1.152,3.121-1.656L55.316,293.919z M52.051,289.07
				c-0.264-1.872-1.416-2.52-2.688-2.52c-1.536,0-2.592,0.888-2.928,2.52H52.051z"/>
			<path d="M57.424,284.606h2.904v1.416c0.144-0.216,0.432-0.6,0.936-0.936c0.72-0.528,1.824-0.84,2.76-0.84
				c1.368,0,2.544,0.624,3.144,1.44c0.744,1.008,0.744,2.304,0.744,3.864v7.057h-2.856v-6.121c0-0.888,0-1.488-0.096-1.824
				c-0.264-1.056-1.032-1.608-1.968-1.608s-1.8,0.552-2.208,1.344c-0.456,0.888-0.456,2.112-0.456,3v5.208h-2.904V284.606z"/>
			<path d="M74.004,286.67v5.425c0,1.488,0,2.136,1.368,2.136c0.432,0,0.792-0.024,1.2-0.144v2.424
				c-0.864,0.144-1.44,0.192-2.088,0.192c-0.6,0-2.616,0-3.168-1.464c-0.192-0.48-0.192-1.248-0.192-2.448v-6.121h-1.752v-2.064
				h1.752v-4.249h2.88v4.249h2.568v2.064H74.004z"/>
			<path d="M89.503,293.919c-1.488,1.992-3.409,3.048-5.857,3.048c-3.144,0-6.168-1.992-6.168-6.408
				c0-4.033,2.592-6.312,5.977-6.312c3.168,0,4.488,1.896,4.729,2.256c0.984,1.392,1.2,3.48,1.224,4.681h-8.881
				c0.336,1.896,1.512,2.976,3.408,2.976c1.968,0,2.76-1.152,3.121-1.656L89.503,293.919z M86.239,289.07
				c-0.264-1.872-1.416-2.52-2.688-2.52c-1.536,0-2.592,0.888-2.928,2.52H86.239z"/>
			<path d="M102.955,293.919c-1.488,1.992-3.409,3.048-5.857,3.048c-3.144,0-6.168-1.992-6.168-6.408
				c0-4.033,2.592-6.312,5.977-6.312c3.168,0,4.488,1.896,4.729,2.256c0.984,1.392,1.2,3.48,1.224,4.681h-8.881
				c0.336,1.896,1.512,2.976,3.408,2.976c1.968,0,2.76-1.152,3.121-1.656L102.955,293.919z M99.69,289.07
				c-0.264-1.872-1.416-2.52-2.688-2.52c-1.536,0-2.592,0.888-2.928,2.52H99.69z"/>
			<path d="M105.063,284.606h2.904v1.416c0.144-0.216,0.432-0.6,0.936-0.936c0.72-0.528,1.824-0.84,2.76-0.84
				c1.368,0,2.544,0.624,3.144,1.44c0.744,1.008,0.744,2.304,0.744,3.864v7.057h-2.856v-6.121c0-0.888,0-1.488-0.096-1.824
				c-0.264-1.056-1.032-1.608-1.968-1.608s-1.8,0.552-2.208,1.344c-0.456,0.888-0.456,2.112-0.456,3v5.208h-2.904V284.606z"/>
			<path d="M121.643,286.67v5.425c0,1.488,0,2.136,1.368,2.136c0.432,0,0.792-0.024,1.2-0.144v2.424
				c-0.864,0.144-1.44,0.192-2.088,0.192c-0.6,0-2.616,0-3.168-1.464c-0.192-0.48-0.192-1.248-0.192-2.448v-6.121h-1.752v-2.064
				h1.752v-4.249h2.88v4.249h2.568v2.064H121.643z"/>
			<path d="M128.924,279.662v6.168c0.912-0.912,2.161-1.584,3.816-1.584c1.488,0,2.64,0.576,3.289,1.296
				c0.984,1.056,1.008,2.28,1.008,3.648v7.417h-2.832v-6.601c-0.048-1.08-0.048-1.344-0.192-1.704
				c-0.096-0.24-0.504-1.32-2.088-1.32c-1.848,0-2.712,1.488-2.904,2.185c-0.096,0.384-0.096,0.576-0.096,1.92v5.521h-2.88v-16.945
				H128.924z"/>
			<path d="M13.182,320.295h-6.36l-0.984,3.312H2.453l5.712-16.945h3.601l5.784,16.945h-3.384L13.182,320.295z M12.342,317.534
				l-2.328-7.8l-2.352,7.8H12.342z"/>
			<path d="M19.309,311.605h2.904v1.416c0.144-0.215,0.432-0.6,0.936-0.936c0.72-0.527,1.824-0.84,2.76-0.84
				c1.368,0,2.544,0.624,3.144,1.439c0.744,1.008,0.744,2.305,0.744,3.865v7.057h-2.856v-6.121c0-0.889,0-1.488-0.096-1.824
				c-0.264-1.057-1.032-1.607-1.968-1.607s-1.8,0.551-2.208,1.344c-0.456,0.888-0.456,2.111-0.456,3v5.209h-2.904V311.605z"/>
			<path d="M32.662,311.605h2.904v1.416c0.144-0.215,0.432-0.6,0.936-0.936c0.72-0.527,1.824-0.84,2.76-0.84
				c1.368,0,2.544,0.624,3.144,1.439c0.744,1.008,0.744,2.305,0.744,3.865v7.057h-2.856v-6.121c0-0.889,0-1.488-0.096-1.824
				c-0.264-1.057-1.032-1.607-1.968-1.607s-1.8,0.551-2.208,1.344c-0.456,0.888-0.456,2.111-0.456,3v5.209h-2.904V311.605z"/>
			<path d="M56.876,311.605v12.002h-2.88v-1.225c-0.504,0.48-1.68,1.512-3.888,1.512c-1.968,0-2.904-0.84-3.336-1.392
				c-0.816-1.032-0.816-2.16-0.816-3.96v-6.938h2.904v6.889c0,0.48,0,0.889,0.096,1.201c0.312,1.055,1.176,1.512,2.232,1.512
				c1.2,0,1.944-0.648,2.328-1.272c0.432-0.792,0.456-1.56,0.48-3.24v-5.089H56.876z"/>
			<path d="M59.602,315.135c0.048-0.601,0.096-1.104,0.48-1.801c1.152-2.088,4.008-2.088,4.776-2.088c1.152,0,2.544,0.144,3.6,0.768
				c1.417,0.864,1.44,1.992,1.44,3.289v6.359c0,0.912,0,1.225,0.528,1.945h-3.408c-0.024-0.289-0.072-0.769-0.072-0.937
				c-0.624,0.528-1.896,1.224-3.552,1.224c-2.712,0-4.344-1.68-4.344-3.744c0-0.6,0.144-1.152,0.384-1.632
				c0.864-1.728,2.712-2.112,3.864-2.328c2.472-0.505,2.664-0.552,3.72-0.888c0-0.601-0.048-1.824-2.04-1.824
				c-1.2,0-1.848,0.384-2.136,0.768c-0.312,0.385-0.288,0.721-0.288,1.057L59.602,315.135z M67.018,317.631
				c-0.576,0.287-1.224,0.504-2.52,0.72c-1.032,0.144-2.4,0.384-2.4,1.656c0,0.937,0.792,1.416,1.944,1.416
				c1.464,0,2.496-0.673,2.808-1.392c0.168-0.361,0.168-0.721,0.168-1.08V317.631z"/>
			<path d="M75.705,306.662v16.945h-2.904v-16.945H75.705z"/>
			<path d="M5.501,345.566c0.408,0.624,1.68,2.568,5.256,2.568c0.6,0,1.224-0.048,1.824-0.288c1.224-0.504,1.44-1.368,1.44-1.944
				c0-1.08-0.744-1.464-1.272-1.68c-0.384-0.145-0.432-0.168-1.968-0.528l-2.04-0.433c-1.08-0.264-1.608-0.383-2.136-0.6
				c-0.768-0.312-2.856-1.344-2.856-4.152c0-3.217,2.712-5.28,6.696-5.28c3.648,0,5.617,1.8,6.816,3.433l-2.592,1.943
				c-0.576-0.84-1.68-2.52-4.393-2.52c-1.704,0-3.192,0.768-3.192,2.064c0,1.439,1.584,1.728,3.121,2.016l1.752,0.385
				c2.28,0.479,5.497,1.416,5.497,5.039c0,3.889-3.601,5.449-7.201,5.449c-0.936,0-1.992-0.096-3.024-0.385
				c-1.128-0.336-3.12-1.151-4.392-3.216L5.501,345.566z"/>
			<path d="M25.455,350.967c-3.744,0-6.241-2.736-6.241-6.408s2.544-6.312,6.121-6.312c3.336,0,6.193,2.328,6.217,6.312
				C31.552,348.303,29.08,350.967,25.455,350.967z M25.311,340.838c-1.8,0-3.096,1.44-3.096,3.648c0,2.473,1.512,3.84,3.24,3.84
				c2.088,0,3.145-1.824,3.072-3.816C28.479,342.518,27.327,340.838,25.311,340.838z"/>
			<path d="M44.651,338.605v12.002h-2.88v-1.225c-0.504,0.48-1.68,1.512-3.888,1.512c-1.968,0-2.904-0.84-3.336-1.392
				c-0.816-1.032-0.816-2.16-0.816-3.96v-6.938h2.904v6.889c0,0.48,0,0.889,0.096,1.201c0.312,1.055,1.176,1.512,2.232,1.512
				c1.2,0,1.944-0.648,2.328-1.272c0.432-0.792,0.456-1.56,0.48-3.24v-5.089H44.651z"/>
			<path d="M50.918,340.67v5.425c0,1.487,0,2.136,1.368,2.136c0.432,0,0.792-0.023,1.2-0.144v2.424
				c-0.864,0.144-1.44,0.192-2.088,0.192c-0.6,0-2.616,0-3.168-1.465c-0.192-0.479-0.192-1.248-0.192-2.447v-6.121h-1.752v-2.064
				h1.752v-4.248h2.88v4.248h2.568v2.064H50.918z"/>
			<path d="M58.199,333.662v6.168c0.912-0.912,2.161-1.584,3.816-1.584c1.488,0,2.64,0.576,3.289,1.296
				c0.984,1.056,1.008,2.28,1.008,3.648v7.417H63.48v-6.602c-0.048-1.08-0.048-1.344-0.192-1.703c-0.096-0.24-0.504-1.32-2.088-1.32
				c-1.848,0-2.712,1.488-2.904,2.184c-0.096,0.385-0.096,0.576-0.096,1.92v5.521h-2.88v-16.945H58.199z"/>
			<path d="M80.568,347.919c-1.488,1.991-3.409,3.048-5.857,3.048c-3.144,0-6.168-1.992-6.168-6.408
				c0-4.033,2.592-6.312,5.977-6.312c3.168,0,4.488,1.896,4.729,2.256c0.984,1.393,1.2,3.48,1.224,4.681h-8.881
				c0.336,1.896,1.512,2.976,3.408,2.976c1.968,0,2.76-1.151,3.121-1.656L80.568,347.919z M77.304,343.07
				c-0.264-1.872-1.416-2.52-2.688-2.52c-1.536,0-2.592,0.887-2.928,2.52H77.304z"/>
			<path d="M85.473,338.605v1.705c0.36-0.625,1.152-2.041,3.84-1.969v2.952c-0.624,0.024-1.704,0.048-2.592,0.72
				c-1.224,0.937-1.248,2.16-1.248,4.152v4.441h-2.784v-12.002H85.473z"/>
			<path d="M90.963,338.605h2.904v1.416c0.144-0.215,0.432-0.6,0.936-0.936c0.72-0.527,1.824-0.84,2.76-0.84
				c1.368,0,2.544,0.624,3.144,1.439c0.744,1.008,0.744,2.305,0.744,3.865v7.057h-2.856v-6.121c0-0.889,0-1.488-0.096-1.824
				c-0.264-1.057-1.032-1.607-1.968-1.607s-1.8,0.551-2.208,1.344c-0.456,0.888-0.456,2.111-0.456,3v5.209h-2.904V338.605z"/>
			<path d="M18.415,372.879c-0.216,0.552-0.624,1.535-1.464,2.544c-1.2,1.392-3.096,2.616-5.856,2.616
				c-4.488,0-7.92-3.289-7.92-8.953c0-5.76,3.72-8.856,8.041-8.856c5.281,0,6.529,4.056,6.913,5.232l-3.168,0.84
				c-0.048-0.312-0.192-1.032-0.625-1.681c-0.36-0.527-1.296-1.487-3.048-1.487c-2.76,0-4.681,2.28-4.681,5.904
				c0,3.864,2.04,6.001,4.705,6.001c1.584,0,2.544-0.769,3.24-1.656c0.552-0.744,0.768-1.368,0.888-1.752L18.415,372.879z"/>
			<path d="M20.312,369.135c0.048-0.601,0.096-1.104,0.48-1.801c1.152-2.088,4.008-2.088,4.776-2.088c1.152,0,2.544,0.144,3.6,0.768
				c1.417,0.864,1.44,1.992,1.44,3.289v6.359c0,0.912,0,1.225,0.528,1.945h-3.408c-0.024-0.289-0.072-0.769-0.072-0.937
				c-0.624,0.528-1.896,1.224-3.552,1.224c-2.712,0-4.344-1.68-4.344-3.744c0-0.6,0.144-1.152,0.384-1.632
				c0.864-1.728,2.712-2.112,3.864-2.328c2.472-0.505,2.664-0.552,3.72-0.888c0-0.601-0.048-1.824-2.04-1.824
				c-1.2,0-1.848,0.384-2.136,0.768c-0.312,0.385-0.288,0.721-0.288,1.057L20.312,369.135z M27.728,371.631
				c-0.576,0.287-1.224,0.504-2.52,0.72c-1.032,0.144-2.4,0.384-2.4,1.656c0,0.937,0.792,1.416,1.944,1.416
				c1.464,0,2.496-0.673,2.808-1.392c0.168-0.361,0.168-0.721,0.168-1.08V371.631z"/>
			<path d="M36.416,360.662v16.945h-2.904v-16.945H36.416z"/>
			<path d="M42.164,360.83v2.904h-2.856v-2.904H42.164z M42.164,365.605v12.002h-2.856v-12.002H42.164z"/>
			<path d="M48.495,367.646v9.961h-2.88v-9.961h-1.8v-2.064h1.8v-1.368c-0.024-1.704-0.024-3.576,3.865-3.576
				c0.576,0,1.104,0.048,1.632,0.096v2.448c-0.24-0.048-0.504-0.072-0.912-0.072c-0.768,0-1.224,0.168-1.512,0.601
				c-0.096,0.168-0.192,0.528-0.192,0.888v0.984h2.616v2.064H48.495z"/>
			<path d="M58.102,377.967c-3.744,0-6.241-2.736-6.241-6.408s2.544-6.312,6.121-6.312c3.336,0,6.193,2.328,6.217,6.312
				C64.198,375.303,61.726,377.967,58.102,377.967z M57.958,367.838c-1.8,0-3.096,1.44-3.096,3.648c0,2.473,1.512,3.84,3.24,3.84
				c2.088,0,3.145-1.824,3.072-3.816C61.126,369.518,59.974,367.838,57.958,367.838z"/>
			<path d="M69.225,365.605v1.705c0.36-0.625,1.152-2.041,3.84-1.969v2.952c-0.624,0.024-1.704,0.048-2.592,0.72
				c-1.224,0.937-1.248,2.16-1.248,4.152v4.441h-2.784v-12.002H69.225z"/>
			<path d="M74.716,365.605h2.904v1.416c0.144-0.215,0.432-0.6,0.936-0.936c0.72-0.527,1.824-0.84,2.76-0.84
				c1.368,0,2.544,0.624,3.144,1.439c0.744,1.008,0.744,2.305,0.744,3.865v7.057h-2.856v-6.121c0-0.889,0-1.488-0.096-1.824
				c-0.264-1.057-1.032-1.607-1.968-1.607s-1.8,0.551-2.208,1.344c-0.456,0.888-0.456,2.111-0.456,3v5.209h-2.904V365.605z"/>
			<path d="M90.945,360.83v2.904h-2.856v-2.904H90.945z M90.945,365.605v12.002h-2.856v-12.002H90.945z"/>
			<path d="M93.671,369.135c0.048-0.601,0.096-1.104,0.48-1.801c1.152-2.088,4.008-2.088,4.776-2.088c1.152,0,2.544,0.144,3.6,0.768
				c1.417,0.864,1.44,1.992,1.44,3.289v6.359c0,0.912,0,1.225,0.528,1.945h-3.408c-0.024-0.289-0.072-0.769-0.072-0.937
				c-0.624,0.528-1.896,1.224-3.552,1.224c-2.712,0-4.344-1.68-4.344-3.744c0-0.6,0.144-1.152,0.384-1.632
				c0.864-1.728,2.712-2.112,3.864-2.328c2.472-0.505,2.664-0.552,3.72-0.888c0-0.601-0.048-1.824-2.04-1.824
				c-1.2,0-1.848,0.384-2.136,0.768c-0.312,0.385-0.288,0.721-0.288,1.057L93.671,369.135z M101.087,371.631
				c-0.576,0.287-1.224,0.504-2.52,0.72c-1.032,0.144-2.4,0.384-2.4,1.656c0,0.937,0.792,1.416,1.944,1.416
				c1.464,0,2.496-0.673,2.808-1.392c0.168-0.361,0.168-0.721,0.168-1.08V371.631z"/>
			<path d="M7.446,401.727h6.72v2.881H4.253v-16.97h3.192V401.727z"/>
			<path d="M18.98,387.83v2.904h-2.856v-2.904H18.98z M18.98,392.605v12.002h-2.856v-12.002H18.98z"/>
			<path d="M21.869,392.605h2.904v1.416c0.144-0.215,0.432-0.6,0.936-0.936c0.72-0.527,1.824-0.84,2.76-0.84
				c1.368,0,2.544,0.624,3.144,1.439c0.744,1.008,0.744,2.305,0.744,3.865v7.057h-2.856v-6.121c0-0.889,0-1.488-0.096-1.824
				c-0.264-1.057-1.032-1.607-1.968-1.607s-1.8,0.551-2.208,1.344c-0.456,0.888-0.456,2.111-0.456,3v5.209h-2.904V392.605z"/>
			<path d="M46.083,392.605v12.002h-2.88v-1.225c-0.504,0.48-1.68,1.512-3.888,1.512c-1.968,0-2.904-0.84-3.336-1.392
				c-0.816-1.032-0.816-2.16-0.816-3.96v-6.938h2.904v6.889c0,0.48,0,0.889,0.096,1.201c0.312,1.055,1.176,1.512,2.232,1.512
				c1.2,0,1.944-0.648,2.328-1.272c0.432-0.792,0.456-1.56,0.48-3.24v-5.089H46.083z"/>
			<path d="M58.885,392.605l-3.625,5.568l4.104,6.434h-3.312l-2.497-3.793l-2.4,3.793h-3.433l4.128-6.434l-3.648-5.568h3.384
				l1.968,3.025l1.92-3.025H58.885z"/>
			<path d="M71.004,390.494v3.984h8.161v2.736h-8.161v4.535h9.529v2.857H67.884v-16.945h12.049v2.832H71.004z"/>
			<path d="M92.934,392.605l-3.625,5.568l4.104,6.434h-3.312l-2.497-3.793l-2.4,3.793h-3.433l4.128-6.434l-3.648-5.568h3.384
				l1.968,3.025l1.92-3.025H92.934z"/>
			<path d="M95.004,392.605h2.856v1.104c0.456-0.479,1.416-1.464,3.288-1.464c3.528,0,5.449,3.168,5.449,6.48
				c0,3.576-2.232,6.24-5.449,6.24c-1.656,0-2.688-0.792-3.288-1.344v4.896h-2.856V392.605z M100.765,402.255
				c1.392,0,2.904-0.96,2.904-3.673c0-3-2.088-3.576-2.953-3.576c-1.32,0-2.832,0.961-2.88,3.528
				C97.788,401.007,99.156,402.255,100.765,402.255z"/>
			<path d="M114.473,404.967c-3.744,0-6.241-2.736-6.241-6.408s2.544-6.312,6.121-6.312c3.336,0,6.193,2.328,6.217,6.312
				C120.569,402.303,118.097,404.967,114.473,404.967z M114.329,394.838c-1.8,0-3.096,1.44-3.096,3.648
				c0,2.473,1.512,3.84,3.24,3.84c2.088,0,3.145-1.824,3.072-3.816C117.497,396.518,116.345,394.838,114.329,394.838z"/>
		</g>
	</g>
</g>
<g id="Layer_2">
</g>
</svg>
